<svg xmlns="http://www.w3.org/2000/svg" data-name="Layer 1" viewBox="0 0 32 32"><path fill="#feea9d" d="M23,11.5a2.5,2.5,0,0,0,0-5h0a2.49,2.49,0,0,0-2-4,2.35,2.35,0,0,0-.54.06,2.49,2.49,0,0,0-4.46-1A2.5,2.5,0,0,0,11.5,3h0A2.49,2.49,0,0,0,8,6.5H8a2.5,2.5,0,0,0,0,5Z"/><path fill="none" stroke="#fee27d" stroke-linecap="round" stroke-linejoin="round" d="M22.45,12.08A3.18,3.18,0,0,0,25.5,9,3,3,0,0,0,23,6.5h0a2.49,2.49,0,0,0-2-4,2.35,2.35,0,0,0-.54.06,2.49,2.49,0,0,0-4.46-1A2.5,2.5,0,0,0,11.5,3h0A2.49,2.49,0,0,0,8,6.5H8A2.87,2.87,0,0,0,5.5,9,3,3,0,0,0,8,12"/><path fill="#ed4769" d="M24.4,12.5l-1.9,19H8.5L6.61,12.6a1,1,0,0,1,1-1.1H23.5A1,1,0,0,1,24.4,12.5Z"/><path fill="#eb304a" d="M24.4,12.5l-1.9,19h-1l2-20A1,1,0,0,1,24.4,12.5Z"/><polygon fill="#fee27d" points="19.5 31.5 11.5 31.5 9.5 11.5 21.5 11.5 19.5 31.5"/><polygon fill="#ed4769" points="16.5 31.5 14.5 31.5 13.5 11.5 17.5 11.5 16.5 31.5"/><ellipse cx="15.5" cy="21" fill="#fff" rx="8" ry="5.5"/><path fill="#e1e1e3" d="M15.5,15.5l-.5,0c4.18.18,7.5,2.56,7.5,5.48s-3.32,5.3-7.5,5.48l.5,0c4.42,0,8-2.46,8-5.5S19.92,15.5,15.5,15.5Z"/><path fill="#fee27d" d="M15.93,9.5a.5.5,0,0,1-.5-.5c0-.37-.33-.72-.84-.9a.48.48,0,0,1-.27-.73A.68.68,0,0,0,14.43,7c0-.54-.68-1-1.5-1s-1.5.46-1.5,1a.67.67,0,0,0,.08.29.5.5,0,0,1,0,.5A.54.54,0,0,1,11,8L11,7.56h0l0,.44c-.81,0-1.5.46-1.5,1a.5.5,0,0,1-.5.5.5.5,0,0,1-.5-.5,2.18,2.18,0,0,1,2-2V7a2.3,2.3,0,0,1,2.5-2,2.3,2.3,0,0,1,2.5,2,1.5,1.5,0,0,1,0,.37,1.9,1.9,0,0,1,1,1.63A.5.5,0,0,1,15.93,9.5Z"/><path fill="#fee27d" d="M21,9.72a.43.43,0,0,1-.19,0A.49.49,0,0,1,20.52,9a1.09,1.09,0,0,0-.44-1.15.51.51,0,0,1,0-.78.68.68,0,0,0,.26-.3c.2-.49-.25-1.18-1-1.5a1.8,1.8,0,0,0-1.32-.07.82.82,0,0,0-.44.41.79.79,0,0,0-.06.29.5.5,0,0,1-.19.43.49.49,0,0,1-.47.07l-.12,0a1.49,1.49,0,0,0-1.71.19.51.51,0,0,1-.7.1.5.5,0,0,1-.09-.7,2.25,2.25,0,0,1,2.4-.68l0,0a1.74,1.74,0,0,1,1-.94,2.77,2.77,0,0,1,2.09.07A2.3,2.3,0,0,1,21.3,7.18a1.77,1.77,0,0,1-.19.33,1.91,1.91,0,0,1,.32,1.91A.49.49,0,0,1,21,9.72Z"/><rect width="7" height="4" x="12" y="19" fill="#ed4769"/><rect width="1" height="4" x="18" y="19" fill="#eb304a"/><path d="M23.78,6.11A2.82,2.82,0,0,0,24,5a3,3,0,0,0-3.17-3A3,3,0,0,0,16,.77a3,3,0,0,0-4.89,1.45A2.82,2.82,0,0,0,10,2,3,3,0,0,0,7,5a2.77,2.77,0,0,0,.22,1.1A3,3,0,0,0,5,9a3,3,0,0,0,1,2.19L8.05,32H23L25,11.19a3,3,0,0,0-1.25-5.08ZM7.05,12h2l.47,4.74A6.51,6.51,0,0,0,7.71,18.6ZM9,31l-.68-6.87a7.33,7.33,0,0,0,2.16,1.67L11,31Zm3,0-.47-4.72a10.39,10.39,0,0,0,2.29.59L14,31ZM16,31H15l-.21-4c.24,0,.49,0,.73,0s.49,0,.73,0Zm3,0H17l.2-4.13a10.39,10.39,0,0,0,2.29-.59Zm3,0h-2l.52-5.2a7.33,7.33,0,0,0,2.16-1.67ZM15.5,26C11.36,26,8,23.76,8,21s3.36-5,7.5-5S23,18.24,23,21,19.64,26,15.5,26ZM10.05,12h3l.17,3.23a10.27,10.27,0,0,0-2.72.94Zm4,0H17l-.15,3.08a10.93,10.93,0,0,0-2.64,0Zm3.78,3.23L18,12h3l-.42,4.17A10.27,10.27,0,0,0,17.81,15.23Zm5.48,3.37a6.51,6.51,0,0,0-1.81-1.86L22,12h2ZM23,11H8A2,2,0,1,1,8,7H8a.5.5,0,0,0,.45-.28.49.49,0,0,0-.05-.52A2,2,0,0,1,8,5a2,2,0,0,1,2-2,2,2,0,0,1,1.2.41.49.49,0,0,0,.52,0A.5.5,0,0,0,12,3a2,2,0,0,1,3.6-1.19.51.51,0,0,0,.8,0A2,2,0,0,1,18,1a2,2,0,0,1,2,1.65.51.51,0,0,0,.22.33.47.47,0,0,0,.38.07A2.37,2.37,0,0,1,21,3a2,2,0,0,1,2,2,2,2,0,0,1-.41,1.2.47.47,0,0,0,0,.52A.5.5,0,0,0,23,7a2,2,0,0,1,0,4ZM21.3,7.18a2.3,2.3,0,0,0-1.53-2.81,2.77,2.77,0,0,0-2.09-.07,1.74,1.74,0,0,0-1,.94l0,0a2.44,2.44,0,0,0-2,.3A2.82,2.82,0,0,0,12.93,5a2.3,2.3,0,0,0-2.5,2V7a2.18,2.18,0,0,0-2,2,.5.5,0,0,0,.5.5.5.5,0,0,0,.5-.5c0-.54.69-1,1.5-1l0-.44h0L11,8a.54.54,0,0,0,.45-.22.5.5,0,0,0,0-.5A.67.67,0,0,1,11.43,7c0-.54.69-1,1.5-1s1.5.46,1.5,1a.68.68,0,0,1-.11.37.48.48,0,0,0,.27.73c.51.18.84.53.84.9a.5.5,0,0,0,.5.5.5.5,0,0,0,.5-.5,1.9,1.9,0,0,0-1-1.63,1.5,1.5,0,0,0,0-.37,1.64,1.64,0,0,0-.13-.62,1.69,1.69,0,0,1,1.48,0l.12,0a.49.49,0,0,0,.47-.07.5.5,0,0,0,.19-.43.79.79,0,0,1,.06-.29.82.82,0,0,1,.44-.41,1.8,1.8,0,0,1,1.32.07c.75.32,1.2,1,1,1.5a.68.68,0,0,1-.26.3.51.51,0,0,0,0,.78A1.09,1.09,0,0,1,20.52,9a.49.49,0,0,0,.26.66.43.43,0,0,0,.19,0,.49.49,0,0,0,.46-.3,1.91,1.91,0,0,0-.32-1.91A1.77,1.77,0,0,0,21.3,7.18ZM11.5,23.5h8v-5h-8Zm1-4h6v3h-6Z"/></svg>